<svg width="478" height="419" viewBox="0 0 478 419" fill="none" xmlns="http://www.w3.org/2000/svg">
<path d="M473.5 252.5C473.5 296.596 447.849 336.987 405.426 366.541C363.019 396.084 304.193 414.5 239 414.5C173.807 414.5 114.981 396.084 72.5738 366.541C30.151 336.987 4.5 296.596 4.5 252.5C4.5 208.404 30.151 168.013 72.5738 138.459C114.981 108.916 173.807 90.5 239 90.5C304.193 90.5 363.019 108.916 405.426 138.459C447.849 168.013 473.5 208.404 473.5 252.5Z" stroke="black" stroke-width="7"/>
<path d="M40 165L76.2647 1.7311" stroke="black" stroke-width="7"/>
<line x1="76.9695" y1="5.88035" x2="131.97" y2="108.88" stroke="black" stroke-width="7"/>
<line x1="341.059" y1="103.828" x2="395.059" y2="5.82828" stroke="black" stroke-width="7"/>
<line x1="394.371" y1="9.92903" x2="431.371" y2="160.929" stroke="black" stroke-width="7"/>
</svg>
