<svg width="601" height="565" viewBox="0 0 601 565" fill="none" xmlns="http://www.w3.org/2000/svg">
<path d="M597.5 342.5C597.5 402.574 564.622 457.243 510.903 497.018C457.184 536.793 382.807 561.5 300.5 561.5C218.193 561.5 143.816 536.793 90.0972 497.018C36.378 457.243 3.5 402.574 3.5 342.5C3.5 282.426 36.378 227.757 90.0972 187.982C143.816 148.207 218.193 123.5 300.5 123.5C382.807 123.5 457.184 148.207 510.903 187.982C564.622 227.757 597.5 282.426 597.5 342.5Z" stroke="red" stroke-opacity="0.53" stroke-width="7"/>
<path d="M42.0804 235.54L105.504 4.61132" stroke="blue" stroke-opacity="0.53" stroke-width="7"/>
<line x1="105.811" y1="8.91413" x2="200.81" y2="136.914" stroke="blue" stroke-opacity="0.53" stroke-width="7"/>
<line x1="397.048" y1="137.12" x2="483.048" y2="2.11952" stroke="blue" stroke-opacity="0.53" stroke-width="7"/>
<line x1="480.318" y1="2.88463" x2="558.318" y2="234.885" stroke="blue" stroke-opacity="0.53" stroke-width="7"/>
</svg>
